<svg t="1628751885274" class="icon" viewBox="0 0 1024 1024" version="1.1" xmlns="http://www.w3.org/2000/svg" p-id="5271" xmlns:xlink="http://www.w3.org/1999/xlink" width="200" height="200"><defs><style type="text/css"></style></defs><path d="M126.933333 549.333333l364.8 213.333334c5.077333 5.333333 15.189333 5.333333 20.266667 5.333333s15.189333 0 20.266667-5.333333l364.8-213.333334c20.266667-10.666667 25.344-37.333333 15.210666-58.666666s-35.477333-26.666667-55.744-16L512 677.333333l-344.533333-202.666666c-20.266667-10.666667-45.589333-5.333333-55.744 16-10.112 21.333333-5.056 48 15.210666 58.666666z" p-id="5272"></path><path d="M856.533333 688L512 890.666667l-344.533333-202.666667c-20.266667-10.666667-45.589333-5.333333-55.744 16-10.112 21.333333-5.056 48 15.210666 58.666667l364.8 213.333333c5.077333 5.333333 15.210667 5.333333 20.266667 5.333333 5.077333 0 15.210667 0 20.266667-5.333333l364.8-213.333333c20.266667-10.666667 25.344-37.333333 15.210666-58.666667s-35.477333-26.666667-55.744-16zM532.48 53.888l359.189333 196.693333a42.666667 42.666667 0 0 1 0 74.837334l-359.168 196.693333a42.666667 42.666667 0 0 1-41.002666 0l-359.168-196.693333a42.666667 42.666667 0 0 1 0-74.837334l359.168-196.693333a42.666667 42.666667 0 0 1 41.002666 0zM512 139.946667L241.664 288 512 436.032 782.314667 288 512 139.946667z" p-id="5273"></path></svg>
