<svg t="1620806315900" class="icon" viewBox="0 0 1024 1024" version="1.1" xmlns="http://www.w3.org/2000/svg" p-id="8841" width="200" height="200"><path d="M853.333333 42.666667a85.333333 85.333333 0 0 1 85.333334 85.333333v768a85.333333 85.333333 0 0 1-85.333334 85.333333H170.666667a85.333333 85.333333 0 0 1-85.333334-85.333333V128a85.333333 85.333333 0 0 1 85.333334-85.333333h682.666666z m0 85.333333H170.666667v768h682.666666V128z" p-id="8842"></path><path d="M170.666667 640h682.666666v85.333333H170.666667z" p-id="8843"></path><path d="M213.333333 768m42.666667 0l42.666667 0q42.666667 0 42.666666 42.666667l0 0q0 42.666667-42.666666 42.666666l-42.666667 0q-42.666667 0-42.666667-42.666666l0 0q0-42.666667 42.666667-42.666667Z" p-id="8844"></path><path d="M384 768m42.666667 0l341.333333 0q42.666667 0 42.666667 42.666667l0 0q0 42.666667-42.666667 42.666666l-341.333333 0q-42.666667 0-42.666667-42.666666l0 0q0-42.666667 42.666667-42.666667Z" p-id="8845"></path><path d="M490.666667 170.666667a149.354667 149.354667 0 0 1 148.053333 129.706666 149.333333 149.333333 0 0 1 66.816 290.304c-6.613333 4.224-14.464 6.656-22.869333 6.656H341.333333c-4.522667 0-8.874667-0.704-12.970666-2.005333a138.709333 138.709333 0 0 1 12.992-274.922667L341.333333 320a149.333333 149.333333 0 0 1 149.333334-149.333333z m0 85.333333a64 64 0 0 0-63.893334 60.245333L426.666667 320l0.021333 1.642667a85.333333 85.333333 0 0 1-74.602667 83.413333l-4.266666 0.426667a53.333333 53.333333 0 0 0-8.405334 105.045333l7.36 1.472h325.824l2.346667-0.96 5.376-1.877333a64 64 0 1 0-25.514667-124.842667l-3.157333 0.426667a85.333333 85.333333 0 0 1-96.853333-68.992l-0.64-4.266667A64.021333 64.021333 0 0 0 490.666667 256z" p-id="8846"></path></svg>
