<svg t="1620806277115" class="icon" viewBox="0 0 1024 1024" version="1.1" xmlns="http://www.w3.org/2000/svg" p-id="8435" width="200" height="200"><path d="M853.333333 85.333333a85.333333 85.333333 0 0 1 85.333334 85.333334v554.666666a85.333333 85.333333 0 0 1-85.333334 85.333334H170.666667a85.333333 85.333333 0 0 1-85.333334-85.333334V170.666667a85.333333 85.333333 0 0 1 85.333334-85.333334h682.666666z m0 85.333334H170.666667v554.666666h682.666666V170.666667z" p-id="8436"></path><path d="M234.666667 853.333333m42.666666 0l469.333334 0q42.666667 0 42.666666 42.666667l0 0q0 42.666667-42.666666 42.666667l-469.333334 0q-42.666667 0-42.666666-42.666667l0 0q0-42.666667 42.666666-42.666667Z" p-id="8437"></path><path d="M528.597333 328.597333a42.666667 42.666667 0 0 1 65.130667 17.813334l1.109333 3.029333L626.986667 448H768a42.666667 42.666667 0 0 1 42.56 39.466667L810.666667 490.666667a42.666667 42.666667 0 0 1-39.466667 42.56L768 533.333333h-171.989333a42.666667 42.666667 0 0 1-39.36-26.218666l-1.194667-3.221334-23.232-71.168-121.962667 92.010667a42.666667 42.666667 0 0 1-21.738666 8.405333l-3.946667 0.192H256a42.666667 42.666667 0 0 1-3.2-85.226666L256 448h114.261333l158.336-119.402667z" p-id="8438"></path></svg>
