<svg width="48" height="48" viewBox="0 0 48 48" fill="none" xmlns="http://www.w3.org/2000/svg">
<circle cx="24" cy="24" r="24" fill="#E6A23C"/>
<path d="M34 21.9917C34 17.7917 31 17.9997 29 17.9997V25.9964C31 25.9964 34 26.1917 34 21.9917Z" stroke="white" stroke-width="2" stroke-linejoin="round"/>
<path d="M26 21.9956C26 17.7956 23 17.9996 21 17.9996V26C23 26 26 26.1956 26 21.9956Z" stroke="white" stroke-width="2" stroke-linejoin="round"/>
<mask id="path-4-inside-1" fill="white">
<rect x="9" y="9" width="30" height="30" rx="1"/>
</mask>
<rect x="9" y="9" width="30" height="30" rx="1" stroke="white" stroke-width="4" mask="url(#path-4-inside-1)"/>
<rect x="27" y="37" width="6" height="2" fill="#E6A23C"/>
<rect x="13" y="13" width="2" height="2" fill="white"/>
<rect x="33" y="13" width="2" height="2" fill="white"/>
<rect x="13" y="33" width="2" height="2" fill="white"/>
<rect x="13" y="29" width="13" height="2" rx="1" fill="white"/>
<rect x="28" y="29" width="7" height="2" rx="1" fill="white"/>
<path fill-rule="evenodd" clip-rule="evenodd" d="M13 18C13 17.4477 13.4477 17 14 17C14.5523 17 15 17.4477 15 18V21H17V18C17 17.4477 17.4477 17 18 17C18.5523 17 19 17.4477 19 18V22V26C19 26.5523 18.5523 27 18 27C17.4477 27 17 26.5523 17 26V23H15V26C15 26.5523 14.5523 27 14 27C13.4477 27 13 26.5523 13 26V22V18Z" fill="white"/>
<rect x="33" y="33" width="2" height="2" fill="white"/>
<path d="M27 39C27.1313 39 27.2614 38.9741 27.3827 38.9239C27.504 38.8736 27.6142 38.8 27.7071 38.7071C27.8 38.6142 27.8736 38.504 27.9239 38.3827C27.9741 38.2614 28 38.1313 28 38C28 37.8687 27.9741 37.7386 27.9239 37.6173C27.8736 37.496 27.8 37.3858 27.7071 37.2929C27.6142 37.2 27.504 37.1264 27.3827 37.0761C27.2614 37.0259 27.1313 37 27 37L27 38L27 39Z" fill="white"/>
<path d="M33 37C32.8687 37 32.7386 37.0259 32.6173 37.0761C32.496 37.1264 32.3858 37.2 32.2929 37.2929C32.2 37.3858 32.1264 37.496 32.0761 37.6173C32.0259 37.7386 32 37.8687 32 38C32 38.1313 32.0259 38.2614 32.0761 38.3827C32.1264 38.504 32.2 38.6142 32.2929 38.7071C32.3858 38.8 32.496 38.8736 32.6173 38.9239C32.7386 38.9741 32.8687 39 33 39L33 38L33 37Z" fill="white"/>
</svg>
