<svg xmlns="http://www.w3.org/2000/svg" viewBox="0 0 24 24"><defs><style>.cls-1{fill:#0098d8;}.cls-1,.cls-2{fill-rule:evenodd;}.cls-2{fill:#66be96;}</style></defs><title>资源 1</title><g id="图层_2" data-name="图层 2"><g id="图层_1-2" data-name="图层 1"><path class="cls-1" d="M23,16.87A12,12,0,0,1,0,12,11.87,11.87,0,0,1,.9,7.45a1.79,1.79,0,0,1,1.16-.08c.24.11.42.45.56,1.06l1.62,6.93a5,5,0,0,0,4.22,4A14.4,14.4,0,0,0,14,19.12c1.35-.27,2.62-.64,3.91-1A36.43,36.43,0,0,1,23,16.87Z"/><path class="cls-2" d="M12,0A12,12,0,0,1,21.4,4.5l-.09,0A25.87,25.87,0,0,0,16.59,5.6L17,7.47a24.12,24.12,0,0,1,4.52-1c.34,0,.68-.09,1-.11a11.76,11.76,0,0,1,.66,1.44c-.37,0-.74.07-1.1.12A26.53,26.53,0,0,0,17.39,9l.45,1.87A24.57,24.57,0,0,1,22.4,9.77c.46-.06.92-.11,1.39-.14A11.33,11.33,0,0,1,24,11.18a26.86,26.86,0,0,0-4.78.92l-1,.25a2.62,2.62,0,0,1-1.65.07c-.28-.13-.5-.52-.67-1.23L15.15,7.8a3.09,3.09,0,0,0-1.66-2.38,4,4,0,0,0-3,.15l.62,1.81a2.58,2.58,0,0,1,1.6-.21c.24.11.42.45.56,1.06l.78,3.39a3.38,3.38,0,0,0,1.72,2.53,4.23,4.23,0,0,0,2.92.06l1-.25A27.46,27.46,0,0,1,24,13.11a14,14,0,0,1-.29,1.74,33.36,33.36,0,0,0-6.37,1.41c-1.25.37-2.49.73-3.74,1a12.62,12.62,0,0,1-4.74.22,3.22,3.22,0,0,1-2.73-2.54L4.5,8A3.12,3.12,0,0,0,2.84,5.61,3,3,0,0,0,2,5.4,12,12,0,0,1,12,0ZM5.14,5.52l.62,1.81a2.5,2.5,0,0,1,1.6-.21c.24.11.42.45.56,1l1.14,4.95a2.76,2.76,0,0,0,.48,1.07,2.39,2.39,0,0,0,1.24.85,2.8,2.8,0,0,0,1.41,0,3.75,3.75,0,0,0,1.36-.64,4.22,4.22,0,0,1-.86-1.67,1.94,1.94,0,0,1-1.38.45.42.42,0,0,1-.23-.17,1,1,0,0,1-.15-.34L9.79,7.75A3.08,3.08,0,0,0,8.13,5.36,4.1,4.1,0,0,0,5.14,5.52Z"/></g></g></svg>