<svg xmlns="http://www.w3.org/2000/svg" viewBox="0 0 184 18"><defs><style>.cls-1{fill:#717071;}.cls-2,.cls-3{fill:#66be96;}.cls-3{fill-rule:evenodd;}</style></defs><title>资源 4</title><g id="图层_2" data-name="图层 2"><g id="图层_1-2" data-name="图层 1"><path class="cls-1" d="M20,.31H23.5V9.73a19.21,19.21,0,0,0,.13,2.91,2.81,2.81,0,0,0,1.06,1.71A3.67,3.67,0,0,0,27,15a3.45,3.45,0,0,0,2.23-.61,2.42,2.42,0,0,0,.9-1.5,18.89,18.89,0,0,0,.15-3V.31h3.47V9.45a23.47,23.47,0,0,1-.28,4.42,4.9,4.9,0,0,1-1,2.19,5.31,5.31,0,0,1-2,1.41,8.59,8.59,0,0,1-3.31.53,9.3,9.3,0,0,1-3.74-.58,5.29,5.29,0,0,1-2-1.49,4.89,4.89,0,0,1-1-1.93A21,21,0,0,1,20,9.59V.31ZM91.69,10.9l8.07-4.77v9.18a9.42,9.42,0,0,1-3.16,1.88,11.47,11.47,0,0,1-4.19.81,9.39,9.39,0,0,1-4.71-1.14,7.25,7.25,0,0,1-3-3.28,10.7,10.7,0,0,1-1-4.63A10.21,10.21,0,0,1,84.8,4.12,7.65,7.65,0,0,1,88.1.88,8.79,8.79,0,0,1,92.22,0a8.18,8.18,0,0,1,5,1.36,5.93,5.93,0,0,1,2,2.6l-3.1,1.81a3.71,3.71,0,0,0-1.37-2A4.06,4.06,0,0,0,92.22,3,4.69,4.69,0,0,0,88.6,4.47a6.2,6.2,0,0,0-1.34,4.34,6.84,6.84,0,0,0,1.36,4.64A4.51,4.51,0,0,0,92.18,15a6.09,6.09,0,0,0,2.19-.43,7.49,7.49,0,0,0,1.88-1.05V10.9ZM67.47,17.7V.31h3.38l7,11.61V.31h3.23V17.7H77.62L70.69,6.36V17.7Zm-3.87,0H59.82l-2-5.27a19.7,19.7,0,0,0,3.28-1L63.6,17.7Zm-7.14-9L54.84,4.37,53,9.37l-.66,0a16.28,16.28,0,0,1-2.79-.11L53,.31h3.67l2.8,7.05a15.08,15.08,0,0,1-3,1.35ZM51.8,12.8a15.52,15.52,0,0,1-3.31-.65L48,13.36c-.63,1.63-.58,1.41-2.31,1.41H40.33V.45H36.86V17.7h9.49c3.48,0,3.65.06,4.68-2.77l.77-2.13ZM0,17.7V.31H5.2L8.31,12.18,11.4.31h5.2V17.7H13.38V4L10,17.7H6.62L3.22,4V17.7Z"/><path class="cls-2" d="M115.33,11.6l2.28.59A7.76,7.76,0,0,1,115,16.51,7,7,0,0,1,110.48,18,8.09,8.09,0,0,1,106,16.86a7.07,7.07,0,0,1-2.65-3.32,11.89,11.89,0,0,1-.91-4.67,10.34,10.34,0,0,1,1-4.73,7.13,7.13,0,0,1,2.92-3.08,8.47,8.47,0,0,1,4.17-1,7,7,0,0,1,4.34,1.33,6.92,6.92,0,0,1,2.45,3.74l-2.24.53a5.34,5.34,0,0,0-1.74-2.76A4.53,4.53,0,0,0,110.47,2a5.52,5.52,0,0,0-3.31,1,5,5,0,0,0-1.87,2.59,10.42,10.42,0,0,0-.54,3.33,10.92,10.92,0,0,0,.64,3.88,4.8,4.8,0,0,0,2,2.47,5.49,5.49,0,0,0,2.92.82,4.86,4.86,0,0,0,3.23-1.11,5.71,5.71,0,0,0,1.8-3.32Zm54.46,6.1V.31h5.92a14,14,0,0,1,3.06.25,5.85,5.85,0,0,1,2.52,1.24,7,7,0,0,1,2,3A11.5,11.5,0,0,1,184,8.91a12.09,12.09,0,0,1-.46,3.51A8.43,8.43,0,0,1,182.37,15a5.89,5.89,0,0,1-3.62,2.45,11.46,11.46,0,0,1-2.76.29Zm2.27-2h3.67a8.62,8.62,0,0,0,2.67-.32,3.74,3.74,0,0,0,1.54-.9,5.52,5.52,0,0,0,1.26-2.2,11,11,0,0,0,.45-3.36,8.19,8.19,0,0,0-.88-4.19,4.45,4.45,0,0,0-2.15-2,8.76,8.76,0,0,0-3-.36h-3.61V15.65ZM163.72.31H166v10a12,12,0,0,1-.59,4.16A5,5,0,0,1,163.29,17a7.35,7.35,0,0,1-4,1,8.18,8.18,0,0,1-3.95-.84,4.74,4.74,0,0,1-2.19-2.44,11.72,11.72,0,0,1-.66-4.36V.31h2.27v10a9.83,9.83,0,0,0,.42,3.34,3.25,3.25,0,0,0,1.43,1.65,4.87,4.87,0,0,0,2.48.59,4.71,4.71,0,0,0,3.58-1.16c.71-.76,1.06-2.24,1.06-4.42V.31ZM133.07,9.23a9.52,9.52,0,0,1,2.3-6.78A7.77,7.77,0,0,1,141.3,0a8.17,8.17,0,0,1,4.3,1.15,7.54,7.54,0,0,1,2.91,3.21,10.5,10.5,0,0,1,1,4.67,10.38,10.38,0,0,1-1,4.73,7.29,7.29,0,0,1-3,3.17A8.55,8.55,0,0,1,141.29,18,8,8,0,0,1,137,16.81a7.56,7.56,0,0,1-2.89-3.24,9.82,9.82,0,0,1-1-4.34Zm2.35,0a7,7,0,0,0,1.67,5,5.78,5.78,0,0,0,8.42,0A7.44,7.44,0,0,0,147.17,9a9.06,9.06,0,0,0-.71-3.71A5.49,5.49,0,0,0,141.32,2a5.77,5.77,0,0,0-4.16,1.68q-1.74,1.68-1.74,5.61ZM120.31,17.7V.31h2.28V15.65h8.46v2Z"/><path class="cls-3" d="M44.09,8.36a16.82,16.82,0,0,0,16.54-.92L59.8,5.6l6.5.1L63,12.53l-.91-2.21C57.12,12.82,47.71,13.43,44.09,8.36Z"/></g></g></svg>