<svg t="1621493794536" class="icon" viewBox="0 0 1024 1024" version="1.1" xmlns="http://www.w3.org/2000/svg" p-id="4469" width="200" height="200"><path d="M853.333333 85.333333a85.333333 85.333333 0 0 1 85.333334 85.333334v554.666666a85.333333 85.333333 0 0 1-85.333334 85.333334H170.666667a85.333333 85.333333 0 0 1-85.333334-85.333334V170.666667a85.333333 85.333333 0 0 1 85.333334-85.333334h682.666666z m0 85.333334H170.666667v554.666666h682.666666V170.666667z" p-id="4470"></path><path d="M234.666667 853.333333m42.666666 0l469.333334 0q42.666667 0 42.666666 42.666667l0 0q0 42.666667-42.666666 42.666667l-469.333334 0q-42.666667 0-42.666666-42.666667l0 0q0-42.666667 42.666666-42.666667Z" p-id="4471"></path><path d="M234.666667 256m42.666666 0l298.666667 0q42.666667 0 42.666667 42.666667l0 0q0 42.666667-42.666667 42.666666l-298.666667 0q-42.666667 0-42.666666-42.666666l0 0q0-42.666667 42.666666-42.666667Z" p-id="4472"></path><path d="M234.666667 405.333333m42.666666 0l469.333334 0q42.666667 0 42.666666 42.666667l0 0q0 42.666667-42.666666 42.666667l-469.333334 0q-42.666667 0-42.666666-42.666667l0 0q0-42.666667 42.666666-42.666667Z" p-id="4473"></path><path d="M234.666667 554.666667m42.666666 0l170.666667 0q42.666667 0 42.666667 42.666666l0 0q0 42.666667-42.666667 42.666667l-170.666667 0q-42.666667 0-42.666666-42.666667l0 0q0-42.666667 42.666666-42.666666Z" p-id="4474"></path></svg>
