<svg t="1620806351961" class="icon" viewBox="0 0 1024 1024" version="1.1" xmlns="http://www.w3.org/2000/svg" p-id="9292" width="200" height="200"><path d="M682.666667 85.333333a85.333333 85.333333 0 0 1 85.333333 85.333334v85.333333h128a85.333333 85.333333 0 0 1 85.333333 85.333333v512a85.333333 85.333333 0 0 1-85.333333 85.333334H298.666667a85.333333 85.333333 0 0 1-85.333334-85.333334v-42.666666H128a85.333333 85.333333 0 0 1-85.333333-85.333334V170.666667a85.333333 85.333333 0 0 1 85.333333-85.333334h554.666667z m0 85.333334H128v554.666666h170.666667v128h597.333333V341.333333H682.666667V170.666667z" p-id="9293"></path><path d="M896 256a85.333333 85.333333 0 0 1 85.333333 85.333333v512a85.333333 85.333333 0 0 1-85.333333 85.333334H298.666667a85.333333 85.333333 0 0 1-85.333334-85.333334V341.333333a85.333333 85.333333 0 0 1 85.333334-85.333333h597.333333z m0 85.333333H298.666667v512h597.333333V341.333333z" p-id="9294"></path><path d="M384 469.333333m42.666667 0l0 0q42.666667 0 42.666666 42.666667l0 0q0 42.666667-42.666666 42.666667l0 0q-42.666667 0-42.666667-42.666667l0 0q0-42.666667 42.666667-42.666667Z" p-id="9295"></path><path d="M384 640m42.666667 0l0 0q42.666667 0 42.666666 42.666667l0 0q0 42.666667-42.666666 42.666666l0 0q-42.666667 0-42.666667-42.666666l0 0q0-42.666667 42.666667-42.666667Z" p-id="9296"></path><path d="M554.666667 469.333333m42.666666 0l170.666667 0q42.666667 0 42.666667 42.666667l0 0q0 42.666667-42.666667 42.666667l-170.666667 0q-42.666667 0-42.666666-42.666667l0 0q0-42.666667 42.666666-42.666667Z" p-id="9297"></path><path d="M554.666667 640m42.666666 0l170.666667 0q42.666667 0 42.666667 42.666667l0 0q0 42.666667-42.666667 42.666666l-170.666667 0q-42.666667 0-42.666666-42.666666l0 0q0-42.666667 42.666666-42.666667Z" p-id="9298"></path></svg>
