<svg t="1620806386488" class="icon" viewBox="0 0 1024 1024" version="1.1" xmlns="http://www.w3.org/2000/svg" p-id="9698" width="200" height="200"><path d="M938.666667 853.333333a42.666667 42.666667 0 1 1 0 85.333334H85.333333a42.666667 42.666667 0 1 1 0-85.333334h853.333334zM170.666667 512a42.666667 42.666667 0 0 1 42.666666 42.666667v213.333333a42.666667 42.666667 0 1 1-85.333333 0V554.666667a42.666667 42.666667 0 0 1 42.666667-42.666667z m170.666666-298.666667a42.666667 42.666667 0 0 1 42.666667 42.666667v512a42.666667 42.666667 0 1 1-85.333333 0V256a42.666667 42.666667 0 0 1 42.666666-42.666667z m170.666667 170.666667a42.666667 42.666667 0 0 1 42.666667 42.666667v341.333333a42.666667 42.666667 0 1 1-85.333334 0V426.666667a42.666667 42.666667 0 0 1 42.666667-42.666667z m170.666667-298.666667a42.666667 42.666667 0 0 1 42.666666 42.666667v640a42.666667 42.666667 0 1 1-85.333333 0V128a42.666667 42.666667 0 0 1 42.666667-42.666667z m170.666666 512a42.666667 42.666667 0 0 1 42.666667 42.666667v128a42.666667 42.666667 0 1 1-85.333333 0v-128a42.666667 42.666667 0 0 1 42.666666-42.666667z" p-id="9699"></path></svg>
