<svg width="48" height="48" viewBox="0 0 48 48" fill="none" xmlns="http://www.w3.org/2000/svg">
<circle cx="24" cy="24" r="24" fill="#E6A23C"/>
<path d="M34 21.9971C34 17.7971 31 17.9996 29 17.9996V26C31 26 34 26.1971 34 21.9971Z" stroke="white" stroke-width="2" stroke-linejoin="round"/>
<mask id="path-3-inside-1" fill="white">
<rect x="9" y="9" width="30" height="30" rx="1"/>
</mask>
<rect x="9" y="9" width="30" height="30" rx="1" stroke="white" stroke-width="4" mask="url(#path-3-inside-1)"/>
<rect x="15" y="37" width="18" height="2" fill="#E6A23C"/>
<path d="M17 37H19V39C19 39.5523 18.5523 40 18 40C17.4477 40 17 39.5523 17 39V37Z" fill="white"/>
<path d="M21 37H23V39C23 39.5523 22.5523 40 22 40C21.4477 40 21 39.5523 21 39V37Z" fill="white"/>
<path d="M25 37H27V39C27 39.5523 26.5523 40 26 40C25.4477 40 25 39.5523 25 39V37Z" fill="white"/>
<path d="M29 37H31V39C31 39.5523 30.5523 40 30 40C29.4477 40 29 39.5523 29 39V37Z" fill="white"/>
<rect x="13" y="13" width="2" height="2" fill="white"/>
<rect x="33" y="13" width="2" height="2" fill="white"/>
<rect x="13" y="33" width="2" height="2" fill="white"/>
<rect x="13" y="29" width="13" height="2" rx="1" fill="white"/>
<rect x="28" y="29" width="7" height="2" rx="1" fill="white"/>
<path fill-rule="evenodd" clip-rule="evenodd" d="M13 18C13 17.4477 13.4477 17 14 17H18C18.5523 17 19 17.4477 19 18C19 18.5523 18.5523 19 18 19H15V21H18C18.5523 21 19 21.4477 19 22V26C19 26.5523 18.5523 27 18 27H14C13.4477 27 13 26.5523 13 26C13 25.4477 13.4477 25 14 25H17V23H14C13.4477 23 13 22.5523 13 22V18Z" fill="white"/>
<path fill-rule="evenodd" clip-rule="evenodd" d="M20.5 18C20.5 17.4477 20.9477 17 21.5 17H25.5C26.0523 17 26.5 17.4477 26.5 18C26.5 18.5523 26.0523 19 25.5 19H22.5V21H25.5C26.0523 21 26.5 21.4477 26.5 22V26C26.5 26.5523 26.0523 27 25.5 27H21.5C20.9477 27 20.5 26.5523 20.5 26C20.5 25.4477 20.9477 25 21.5 25H24.5V23H21.5C20.9477 23 20.5 22.5523 20.5 22V18Z" fill="white"/>
<rect x="33" y="33" width="2" height="2" fill="white"/>
<path d="M15 39C15.1313 39 15.2614 38.9741 15.3827 38.9239C15.504 38.8736 15.6142 38.8 15.7071 38.7071C15.8 38.6142 15.8736 38.504 15.9239 38.3827C15.9741 38.2614 16 38.1313 16 38C16 37.8687 15.9741 37.7386 15.9239 37.6173C15.8736 37.496 15.8 37.3858 15.7071 37.2929C15.6142 37.2 15.504 37.1264 15.3827 37.0761C15.2614 37.0259 15.1313 37 15 37L15 38L15 39Z" fill="white"/>
<path d="M33 37C32.8687 37 32.7386 37.0259 32.6173 37.0761C32.496 37.1264 32.3858 37.2 32.2929 37.2929C32.2 37.3858 32.1264 37.496 32.0761 37.6173C32.0259 37.7386 32 37.8687 32 38C32 38.1313 32.0259 38.2614 32.0761 38.3827C32.1264 38.504 32.2 38.6142 32.2929 38.7071C32.3858 38.8 32.496 38.8736 32.6173 38.9239C32.7386 38.9741 32.8687 39 33 39L33 38L33 37Z" fill="white"/>
</svg>
