<svg t="1620806289560" class="icon" viewBox="0 0 1024 1024" version="1.1" xmlns="http://www.w3.org/2000/svg" p-id="8569" width="200" height="200"><path d="M853.333333 85.333333a85.333333 85.333333 0 0 1 85.333334 85.333334v682.666666a85.333333 85.333333 0 0 1-85.333334 85.333334H170.666667a85.333333 85.333333 0 0 1-85.333334-85.333334V170.666667a85.333333 85.333333 0 0 1 85.333334-85.333334h682.666666z m0 85.333334H170.666667v682.666666h682.666666V170.666667z" p-id="8570"></path><path d="M170.666667 170.666667h682.666666v85.333333H170.666667z" p-id="8571"></path><path d="M503.321986 358.174589m42.018464 7.408989l0 0q42.018464 7.408989 34.609475 49.427453l-51.862922 294.129249q-7.408989 42.018464-49.427453 34.609475l0 0q-42.018464-7.408989-34.609475-49.427453l51.862922-294.129249q7.408989-42.018464 49.427453-34.609475Z" p-id="8572"></path><path d="M802.730667 529.877333a42.666667 42.666667 0 0 1 1.962666 46.549334l-1.962666 3.050666-106.666667 149.333334a42.666667 42.666667 0 0 1-71.36-46.677334l1.92-2.922666L715.584 554.666667l-88.96-124.522667a42.666667 42.666667 0 0 1 7.146667-57.386667l2.773333-2.133333a42.666667 42.666667 0 0 1 57.365333 7.146667l2.133334 2.773333 106.666666 149.333333zM221.269333 529.877333a42.666667 42.666667 0 0 0-1.962666 46.549334l1.962666 3.050666 106.666667 149.333334a42.666667 42.666667 0 0 0 71.36-46.677334l-1.92-2.922666L308.416 554.666667l88.96-124.522667a42.666667 42.666667 0 0 0-7.146667-57.386667l-2.773333-2.133333a42.666667 42.666667 0 0 0-57.365333 7.146667l-2.133334 2.773333-106.666666 149.333333z" p-id="8573"></path></svg>
