<svg t="1620984082190" class="icon" viewBox="0 0 1024 1024" version="1.1" xmlns="http://www.w3.org/2000/svg" p-id="4481" width="200" height="200"><path d="M739.626667 128.170667v85.504l115.029333 126.848-64.64 65.621333c-10.24-9.856-30.122667-21.76-43.946667-21.461333a57.002667 57.002667 0 0 0-45.653333 18.005333c-21.205333 18.474667-17.877333 47.829333-17.621333 64.042667v311.424c0 16.725333-1.28 23.381333-5.973334 27.818666-4.693333 4.48-7.338667 6.144-22.869333 6.144H371.754667c-14.762667 0-19.328-2.986667-24.533334-8.661333-5.162667-5.717333-6.485333-9.642667-6.528-25.301333V466.773333c0.213333-16.213333 2.346667-47.232-7.253333-62.293333-12.202667-14.634667-24.064-21.845333-50.730667-20.864-23.424 1.28-33.109333 12.544-47.829333 22.485333L170.496 340.48l112.213333-128.597333h34.986667l1.621333 1.749333C365.056 277.930667 436.096 298.794667 512 298.794667s147.797333-19.072 193.493333-83.328c0-0.469333 0.170667-0.938667 0.469334-1.28a1.578667 1.578667 0 0 1 1.194666-0.512l33.28 0.085333V128.170667m-421.845333 0h-30.890667a52.992 52.992 0 0 0-43.264 17.578666L102.144 295.253333A58.410667 58.410667 0 0 0 85.333333 336.554667c0 15.616 6.101333 30.549333 16.810667 41.301333l82.389333 87.04c9.813333 10.112 22.954667 15.786667 36.608 15.872 13.610667-0.512 26.581333-6.144 36.608-15.829333h0.853334c1.664 0 1.664 0 1.664 1.706666v311.466667c0.085333 65.28 50.048 118.016 111.488 117.888h279.637333c61.482667 0.128 111.402667-52.650667 111.530667-117.845333V466.773333c0-1.749333 0-1.749333 1.664-1.749333h1.664c9.813333 10.069333 22.954667 15.701333 36.608 15.786667 13.653333-0.128 26.709333-5.802667 36.608-15.786667l82.389333-87.082667c10.709333-10.709333 16.810667-25.685333 16.810667-41.301333s-6.101333-30.592-16.810667-41.301333L780.373333 145.92a55.04 55.04 0 0 0-40.789333-17.578667h-34.901333c-19.370667-0.042667-37.333333 10.624-47.445334 28.117334-35.285333 47.786667-89.301333 75.648-146.474666 75.648-57.173333 0-111.189333-27.904-146.474667-75.648-9.386667-17.493333-26.88-28.245333-45.781333-28.245334h0.085333z" p-id="4482"></path></svg>
