<?xml version="1.0" standalone="no"?><!DOCTYPE svg PUBLIC "-//W3C//DTD SVG 1.1//EN" "http://www.w3.org/Graphics/SVG/1.1/DTD/svg11.dtd"><svg t="1645688455954" class="icon" viewBox="0 0 1024 1024" version="1.1" xmlns="http://www.w3.org/2000/svg" p-id="2872" xmlns:xlink="http://www.w3.org/1999/xlink" width="200" height="200"><defs><style type="text/css"></style></defs><path d="M896 42.666667a85.333333 85.333333 0 0 1 85.226667 81.066666L981.333333 128v341.162667a42.666667 42.666667 0 0 1-85.226666 3.2l-0.106667-3.2V128H554.666667v106.666667a42.666667 42.666667 0 0 1-85.226667 3.2L469.333333 234.666667V128a85.333333 85.333333 0 0 1 81.066667-85.226667L554.666667 42.666667h341.333333z" p-id="2873"></path><path d="M938.666667 192a42.666667 42.666667 0 0 1 3.2 85.226667L938.666667 277.333333H512a42.666667 42.666667 0 0 1-3.2-85.226666L512 192h426.666667zM938.666667 341.333333a42.666667 42.666667 0 0 1 3.2 85.226667L938.666667 426.666667h-192a42.666667 42.666667 0 0 1-3.2-85.226667L746.666667 341.333333h192zM448 341.333333c109.013333 0 198.912 81.749333 211.754667 187.306667C686.634667 517.888 715.946667 512 746.666667 512c129.6 0 234.666667 105.066667 234.666666 234.666667 0 122.410667-93.717333 222.933333-213.333333 233.706666V981.333333H213.333333v-0.298666a181.333333 181.333333 0 1 1 31.488-361.173334A212.608 212.608 0 0 1 234.666667 554.666667c0-117.824 95.509333-213.333333 213.333333-213.333334z m0 85.333334a128 128 0 0 0-123.776 160.789333l1.834667 6.272c18.56 57.749333-27.264 115.392-86.933334 111.274667l-3.989333-0.362667a96 96 0 0 0-21.418667 190.826667l6.613334 0.533333h534.954666l0.746667-0.106667 4.309333-0.512C836.821333 888.490667 896 824.064 896 746.666667a149.333333 149.333333 0 0 0-149.333333-149.333334c-16.853333 0-33.237333 2.773333-48.704 8.106667l-6.570667 2.432c-50.752 20.266667-106.773333-11.733333-115.754667-64.917333l-0.576-4.032A128.042667 128.042667 0 0 0 448 426.666667z" p-id="2874"></path></svg>